<svg width="20" height="20" viewBox="0 0 20 20" fill="none" xmlns="http://www.w3.org/2000/svg">
<path d="M4.16699 15V18.1383L5.42949 17.3808L9.39783 15H13.3337C14.2528 15 15.0003 14.2525 15.0003 13.3333V6.66667C15.0003 5.7475 14.2528 5 13.3337 5H3.33366C2.41449 5 1.66699 5.7475 1.66699 6.66667V13.3333C1.66699 14.2525 2.41449 15 3.33366 15H4.16699ZM3.33366 6.66667H13.3337V13.3333H8.93616L5.83366 15.195V13.3333H3.33366V6.66667Z" fill="black"/>
<path d="M16.6667 1.6665H6.66667C5.7475 1.6665 5 2.414 5 3.33317H15C15.9192 3.33317 16.6667 4.08067 16.6667 4.99984V11.6665C17.5858 11.6665 18.3333 10.919 18.3333 9.99984V3.33317C18.3333 2.414 17.5858 1.6665 16.6667 1.6665Z" fill="black"/>
</svg>
