<svg width="20" height="20" viewBox="0 0 20 20" fill="none" xmlns="http://www.w3.org/2000/svg">
<path d="M10.0001 9.1665C10.2211 9.1665 10.4331 9.2543 10.5894 9.41058C10.7457 9.56686 10.8335 9.77882 10.8335 9.99984V15.4865L11.911 14.4098C12.0674 14.2536 12.2796 14.1659 12.5007 14.166C12.7219 14.1662 12.9339 14.2542 13.0901 14.4107C13.2464 14.5671 13.3341 14.7793 13.3339 15.0004C13.3338 15.2216 13.2458 15.4336 13.0893 15.5898L10.736 17.939C10.5251 18.149 10.3193 18.3332 10.0001 18.3332C9.72013 18.3332 9.52846 18.1923 9.34346 18.0165L6.91096 15.5898C6.75449 15.4336 6.66649 15.2216 6.66633 15.0004C6.66618 14.7793 6.75387 14.5671 6.91013 14.4107C7.06639 14.2542 7.2784 14.1662 7.49954 14.166C7.72068 14.1659 7.93282 14.2536 8.0893 14.4098L9.1668 15.4865V9.99984C9.1668 9.77882 9.25459 9.56686 9.41087 9.41058C9.56715 9.2543 9.77911 9.1665 10.0001 9.1665ZM9.58346 1.6665C11.9035 1.6665 13.8835 3.12484 14.6551 5.1765C15.6831 5.45915 16.5939 6.06283 17.2547 6.8995C17.9155 7.73617 18.2917 8.76207 18.3284 9.82758C18.3652 10.8931 18.0606 11.9425 17.459 12.8227C16.8574 13.7029 15.9904 14.3679 14.9843 14.7207C14.9212 14.1582 14.6691 13.6338 14.2693 13.2332C13.8429 12.8061 13.2763 12.5477 12.6743 12.5057L12.5001 12.4998V9.99984C12.5008 9.34908 12.2476 8.72373 11.7945 8.25666C11.3414 7.78958 10.724 7.5176 10.0735 7.4985C9.42302 7.47941 8.79073 7.7147 8.31099 8.15439C7.83124 8.59408 7.54185 9.2035 7.5043 9.85317L7.50013 9.99984V12.4998C7.17151 12.4998 6.84611 12.5645 6.54254 12.6904C6.23897 12.8162 5.96319 13.0007 5.73096 13.2332C5.28338 13.6816 5.02276 14.2833 5.0018 14.9165C4.13423 14.7392 3.34567 14.2903 2.7504 13.6347C2.15512 12.9792 1.78408 12.1511 1.69104 11.2705C1.59801 10.3899 1.78782 9.50259 2.23296 8.73712C2.67809 7.97165 3.35543 7.36783 4.1668 7.01317C4.18521 5.58875 4.76401 4.22891 5.77784 3.22818C6.79167 2.22745 8.15892 1.66638 9.58346 1.6665Z" fill="#002455"/>
</svg>
