<svg width="20" height="20" viewBox="0 0 20 20" fill="none" xmlns="http://www.w3.org/2000/svg">
  <!-- Employee icon: two-user silhouette to represent staff/employee -->
  <path d="M6.5 10.5C4.57 10.5 3 8.93 3 7C3 5.07 4.57 3.5 6.5 3.5C8.43 3.5 10 5.07 10 7C10 8.93 8.43 10.5 6.5 10.5ZM1.5 16.5V15.75C1.5 13.68 3.18 12 5.25 12H7.75C9.82 12 11.5 13.68 11.5 15.75V16.5H1.5Z" fill="black"/>
  <path d="M13.75 10C12.23 10 11 8.77 11 7.25C11 5.73 12.23 4.5 13.75 4.5C15.27 4.5 16.5 5.73 16.5 7.25C16.5 8.77 15.27 10 13.75 10ZM12 16.5V15.9C12 14.29 13.29 13 14.9 13H15.6C17.21 13 18.5 14.29 18.5 15.9V16.5H12Z" fill="black"/>
</svg>
