<svg width="12" height="11" viewBox="0 0 12 11" fill="none" xmlns="http://www.w3.org/2000/svg">
<path d="M6.75809 0.836426L11.7946 9.55959C11.8714 9.69261 11.9118 9.84349 11.9118 9.99709C11.9118 10.1507 11.8714 10.3016 11.7946 10.4346C11.7178 10.5676 11.6074 10.6781 11.4743 10.7549C11.3413 10.8317 11.1904 10.8721 11.0368 10.8721H0.963845C0.810252 10.8721 0.659366 10.8317 0.526353 10.7549C0.393339 10.6781 0.282884 10.5676 0.206089 10.4346C0.129295 10.3016 0.0888662 10.1507 0.0888672 9.99709C0.0888682 9.84349 0.129299 9.69261 0.206095 9.55959L5.24259 0.836426C5.57918 0.253092 6.42093 0.253092 6.75809 0.836426ZM6.00034 7.75009C5.84563 7.75009 5.69726 7.81155 5.58787 7.92095C5.47847 8.03034 5.41701 8.17872 5.41701 8.33343C5.41701 8.48814 5.47847 8.63651 5.58787 8.7459C5.69726 8.8553 5.84563 8.91676 6.00034 8.91676C6.15505 8.91676 6.30343 8.8553 6.41282 8.7459C6.52222 8.63651 6.58368 8.48814 6.58368 8.33343C6.58368 8.17872 6.52222 8.03034 6.41282 7.92095C6.30343 7.81155 6.15505 7.75009 6.00034 7.75009ZM6.00034 3.66676C5.85747 3.66678 5.71956 3.71923 5.61279 3.81418C5.50602 3.90912 5.43781 4.03995 5.42109 4.18184L5.41701 4.25009V6.58343C5.41718 6.73211 5.47411 6.87511 5.57617 6.98322C5.67824 7.09134 5.81773 7.1564 5.96616 7.16511C6.11458 7.17382 6.26073 7.12553 6.37475 7.0301C6.48876 6.93468 6.56203 6.79931 6.57959 6.65168L6.58368 6.58343V4.25009C6.58368 4.09538 6.52222 3.94701 6.41282 3.83761C6.30343 3.72822 6.15505 3.66676 6.00034 3.66676Z" fill="white"/>
</svg>
