<svg width="20" height="20" viewBox="0 0 20 20" fill="none" xmlns="http://www.w3.org/2000/svg">
<rect width="20" height="20" rx="10" fill="#FF0000"/>
<path d="M10.7581 4.83643L15.7946 13.5596C15.8714 13.6926 15.9118 13.8435 15.9118 13.9971C15.9118 14.1507 15.8714 14.3016 15.7946 14.4346C15.7178 14.5676 15.6074 14.6781 15.4743 14.7549C15.3413 14.8317 15.1904 14.8721 15.0368 14.8721H4.96384C4.81025 14.8721 4.65937 14.8317 4.52635 14.7549C4.39334 14.6781 4.28288 14.5676 4.20609 14.4346C4.12929 14.3016 4.08887 14.1507 4.08887 13.9971C4.08887 13.8435 4.1293 13.6926 4.20609 13.5596L9.24259 4.83643C9.57918 4.25309 10.4209 4.25309 10.7581 4.83643ZM10.0003 11.7501C9.84563 11.7501 9.69726 11.8116 9.58787 11.9209C9.47847 12.0303 9.41701 12.1787 9.41701 12.3334C9.41701 12.4881 9.47847 12.6365 9.58787 12.7459C9.69726 12.8553 9.84563 12.9168 10.0003 12.9168C10.1551 12.9168 10.3034 12.8553 10.4128 12.7459C10.5222 12.6365 10.5837 12.4881 10.5837 12.3334C10.5837 12.1787 10.5222 12.0303 10.4128 11.9209C10.3034 11.8116 10.1551 11.7501 10.0003 11.7501ZM10.0003 7.66676C9.85747 7.66678 9.71956 7.71923 9.61279 7.81418C9.50602 7.90912 9.43781 8.03995 9.42109 8.18184L9.41701 8.25009V10.5834C9.41718 10.7321 9.47411 10.8751 9.57617 10.9832C9.67824 11.0913 9.81773 11.1564 9.96616 11.1651C10.1146 11.1738 10.2607 11.1255 10.3747 11.0301C10.4888 10.9347 10.562 10.7993 10.5796 10.6517L10.5837 10.5834V8.25009C10.5837 8.09538 10.5222 7.94701 10.4128 7.83761C10.3034 7.72822 10.1551 7.66676 10.0003 7.66676Z" fill="white"/>
</svg>
