<svg width="25" height="25" viewBox="0 0 25 25" fill="none" xmlns="http://www.w3.org/2000/svg">
<path d="M8.5 22.5C7.4 22.5 6.45833 22.1083 5.675 21.325C4.89167 20.5417 4.5 19.6 4.5 18.5V8.5C4.5 7.4 4.89167 6.45833 5.675 5.675C6.45833 4.89167 7.4 4.5 8.5 4.5H9.5V2.5H11.5V4.5H13.5V2.5H15.5V4.5H16.5C17.6 4.5 18.5417 4.89167 19.325 5.675C20.1083 6.45833 20.5 7.4 20.5 8.5V18.5C20.5 19.6 20.1083 20.5417 19.325 21.325C18.5417 22.1083 17.6 22.5 16.5 22.5H8.5ZM8.5 20.5H16.5C17.05 20.5 17.521 20.3043 17.913 19.913C18.305 19.5217 18.5007 19.0507 18.5 18.5V8.5C18.5 7.95 18.3043 7.47933 17.913 7.088C17.5217 6.69667 17.0507 6.50067 16.5 6.5H8.5C7.95 6.5 7.47933 6.696 7.088 7.088C6.69667 7.48 6.50067 7.95067 6.5 8.5V18.5C6.5 19.05 6.696 19.521 7.088 19.913C7.48 20.305 7.95067 20.5007 8.5 20.5ZM8.5 10.5H16.5V8.5H8.5V10.5ZM12.5 18.5C13.2 18.5 13.7917 18.2627 14.275 17.788C14.7583 17.3133 15 16.734 15 16.05C15 15.5 14.8417 15.0293 14.525 14.638C14.2083 14.2467 13.5333 13.4507 12.5 12.25C11.45 13.45 10.771 14.25 10.463 14.65C10.155 15.05 10.0007 15.5167 10 16.05C10 16.7333 10.2417 17.3127 10.725 17.788C11.2083 18.2633 11.8 18.5007 12.5 18.5Z" fill="white"/>
</svg>
