<svg width="18" height="20" viewBox="0 0 18 20" fill="none" xmlns="http://www.w3.org/2000/svg">
<path d="M3.133 18.9998C1.955 18.9998 1 18.0198 1 16.8098V8.00779C1 7.34279 1.295 6.71279 1.8 6.29779L7.667 1.47979C8.04186 1.16937 8.5133 0.999512 9 0.999512C9.4867 0.999512 9.95814 1.16937 10.333 1.47979L16.199 6.29779C16.705 6.71279 17 7.34279 17 8.00779V16.8098C17 18.0198 16.045 18.9998 14.867 18.9998H3.133Z" stroke="black" stroke-width="1.5" stroke-linecap="round" stroke-linejoin="round"/>
<path d="M6.5 19V13.5C6.5 12.9696 6.71071 12.4609 7.08579 12.0858C7.46086 11.7107 7.96957 11.5 8.5 11.5H9.5C10.0304 11.5 10.5391 11.7107 10.9142 12.0858C11.2893 12.4609 11.5 12.9696 11.5 13.5V19" stroke="black" stroke-width="1.5" stroke-linecap="round" stroke-linejoin="round"/>
</svg>
