<svg width="20" height="20" viewBox="0 0 20 20" fill="none" xmlns="http://www.w3.org/2000/svg">
<path d="M15.1117 9.1665C15.5958 13.6457 17.5 14.9998 17.5 14.9998H2.5C2.5 14.9998 5 13.2223 5 6.99984C5 5.58567 5.52667 4.229 6.46417 3.229C7.40167 2.229 8.675 1.6665 10 1.6665C10.2817 1.6665 10.5594 1.6915 10.8333 1.7415M11.4417 17.4998C11.2952 17.7524 11.0849 17.962 10.8319 18.1078C10.5788 18.2535 10.292 18.3302 10 18.3302C9.70802 18.3302 9.42116 18.2535 9.16814 18.1078C8.91513 17.962 8.70484 17.7524 8.55833 17.4998M15.8333 6.6665C16.4964 6.6665 17.1323 6.40311 17.6011 5.93427C18.0699 5.46543 18.3333 4.82955 18.3333 4.1665C18.3333 3.50346 18.0699 2.86758 17.6011 2.39874C17.1323 1.9299 16.4964 1.6665 15.8333 1.6665C15.1703 1.6665 14.5344 1.9299 14.0656 2.39874C13.5967 2.86758 13.3333 3.50346 13.3333 4.1665C13.3333 4.82955 13.5967 5.46543 14.0656 5.93427C14.5344 6.40311 15.1703 6.6665 15.8333 6.6665Z" stroke="black" stroke-width="1.5" stroke-linecap="round" stroke-linejoin="round"/>
</svg>
