<svg width="25" height="22" viewBox="0 0 25 22" fill="none" xmlns="http://www.w3.org/2000/svg">
<path d="M17.75 6.03125L24.4883 9.40625V18.5703L17.75 21.9453L11 18.5938V14.832L7.25 16.6953L0.5 13.3438L0.511719 4.15625L7.25 0.78125L13.9883 4.15625L14 7.91797L17.75 6.03125ZM22.0625 9.86328L17.75 7.71875L13.4375 9.86328L17.75 12.0195L22.0625 9.86328ZM11.5625 4.61328L7.25 2.46875L2.9375 4.61328L7.25 6.76953L11.5625 4.61328ZM2.01172 5.83203L2 12.4062L6.5 14.6445V8.07031L2.01172 5.83203ZM8 14.6445L11.0117 13.1562V9.40625L12.5 8.66797L12.4883 5.83203L8 8.07031V14.6445ZM12.5117 11.082L12.5 17.6562L17 19.8945V13.3203L12.5117 11.082ZM18.5 19.8945L22.9883 17.6445V11.082L18.5 13.3203V19.8945Z" fill="black"/>
</svg>
