<svg width="161" height="205" viewBox="0 0 161 205" fill="none" xmlns="http://www.w3.org/2000/svg">
<path d="M98.5058 178.381L55.6698 183.506L12.8338 178.38C12.8338 178.38 12.1648 189.914 18.3178 192.349C21.3838 193.563 38.5878 196.702 55.6698 196.706C72.8628 196.71 89.9349 193.571 93.0209 192.349C99.1739 189.915 98.5058 178.381 98.5058 178.381Z" fill="#2DA185"/>
<path d="M81.3789 21.9198C79.0749 22.6328 76.4749 21.4558 75.0139 19.6068C73.5529 17.7578 73.0339 15.3798 72.8359 13.0678C72.6369 10.7558 72.7169 8.41579 72.2699 6.13579C67.3839 5.92079 60.5549 5.57779 55.6689 5.36279C50.7829 5.57779 43.9539 5.92079 39.0679 6.13579C38.6219 8.41579 38.7009 10.7558 38.5019 13.0678C38.3029 15.3798 37.7849 17.7568 36.3239 19.6068C34.8629 21.4558 32.2629 22.6318 29.9589 21.9198C29.9379 25.2838 29.8569 29.1058 29.8359 32.4698C37.8949 32.4638 47.6099 32.2658 55.6689 32.2598C63.7279 32.2658 73.4429 32.4638 81.5009 32.4698C81.4799 29.1058 81.3999 25.2848 81.3789 21.9198Z" fill="#2DA185"/>
<path d="M38.6861 9.73677C38.6301 10.8478 38.5981 11.9608 38.5031 13.0688C38.3041 15.3808 37.7861 17.7578 36.3251 19.6078C35.4941 20.6598 34.2901 21.4788 32.9851 21.8708C32.5701 25.3838 32.4971 28.9198 32.5401 32.4618C37.0931 32.4388 49.8021 32.3128 54.5881 32.2628C54.3441 30.1578 54.8281 28.0388 55.5521 26.0248C56.4251 23.5968 57.6351 21.2928 58.3721 18.8198C59.3071 15.6818 59.4471 13.2428 59.3791 9.95277C54.2181 9.32077 42.9671 9.14677 38.6861 9.73677Z" fill="#51D4B3"/>
<path d="M27.8223 7.80178C27.8733 6.77578 28.1043 5.51279 29.1263 5.20279C29.9163 4.96279 30.7803 5.50379 31.1533 6.21279C31.5263 6.92179 31.5323 7.75079 31.5293 8.54479C31.4953 19.0368 31.4613 29.5288 31.4273 40.0208C31.4233 41.2258 31.3793 42.5418 30.5633 43.4578C29.3963 44.7698 26.7503 44.5188 26.1663 42.8388C25.4483 40.7758 26.3373 37.3788 26.4453 35.2268C26.7373 29.4138 27.0283 23.6008 27.3203 17.7888C27.4883 14.4598 27.6553 11.1308 27.8223 7.80178Z" fill="#51D4B3"/>
<path d="M29.126 5.20181C28.104 5.51181 27.873 6.7748 27.822 7.8008C27.798 8.2768 27.774 8.7528 27.75 9.2298C29.005 9.35881 30.273 9.34981 31.527 9.21081C31.528 8.98881 31.528 8.76681 31.529 8.54481C31.532 7.74981 31.526 6.92181 31.153 6.21281C30.78 5.50281 29.916 4.96181 29.126 5.20181Z" fill="#2DA185"/>
<path d="M83.516 7.80178C83.464 6.77578 83.234 5.51279 82.212 5.20279C81.422 4.96279 80.558 5.50379 80.185 6.21279C79.812 6.92179 79.806 7.75079 79.809 8.54479C79.843 19.0368 79.877 29.5288 79.911 40.0208C79.915 41.2258 79.959 42.5418 80.775 43.4578C81.942 44.7698 84.588 44.5188 85.172 42.8388C85.89 40.7758 85.001 37.3788 84.893 35.2268C84.601 29.4138 84.31 23.6008 84.018 17.7888C83.85 14.4598 83.683 11.1308 83.516 7.80178Z" fill="#51D4B3"/>
<path d="M83.618 9.82379C83.584 9.14979 83.5499 8.47579 83.5159 7.80178C83.4639 6.77578 83.234 5.51279 82.212 5.20279C81.422 4.96279 80.5579 5.50379 80.1849 6.21279C79.8119 6.92179 79.806 7.75079 79.809 8.54479C79.81 9.00779 79.812 9.46979 79.813 9.93279C81.082 9.98179 82.353 9.93879 83.618 9.82379Z" fill="#2DA185"/>
<path d="M105.861 58.423C99.039 34.97 62.524 36.123 62.524 36.123H48.814C48.814 36.123 12.298 34.97 5.47703 58.423C-1.34497 81.876 0.260032 154.543 0.260032 154.543C0.260032 154.543 -0.943969 174.596 15.107 181.102C31.158 187.608 55.669 187.227 55.669 187.227C55.669 187.227 80.18 187.607 96.231 181.102C112.282 174.596 111.078 154.543 111.078 154.543C111.078 154.543 112.683 81.876 105.861 58.423Z" fill="#51D4B3"/>
<path d="M27.3309 178.141C25.8269 173.187 26.0389 168.768 26.0409 168.724L26.0509 168.537L26.0479 168.332C26.0319 167.613 24.5369 76.0949 31.0669 53.6469C32.6669 48.1439 36.4559 44.2669 41.0459 41.5239C31.1539 42.5819 14.1929 46.3619 10.2789 59.8199C3.7489 82.2689 5.2439 153.714 5.2599 154.433L5.26291 154.638L5.2529 154.825C5.2509 154.869 5.0379 159.288 6.5429 164.242C8.3789 170.291 11.8929 174.405 16.9869 176.47C20.3109 177.817 24.0499 178.849 27.8589 179.641C27.6759 179.148 27.4889 178.661 27.3309 178.141Z" fill="white"/>
<path d="M85.383 178.141C86.887 173.187 86.675 168.768 86.673 168.724L86.663 168.537L86.666 168.332C86.682 167.613 88.177 76.0949 81.647 53.6469C80.047 48.1439 76.258 44.2669 71.668 41.5239C81.56 42.5819 98.521 46.3619 102.435 59.8199C108.965 82.2689 107.47 153.714 107.454 154.433L107.451 154.638L107.461 154.825C107.463 154.869 107.676 159.288 106.171 164.242C104.335 170.291 100.821 174.405 95.727 176.47C92.403 177.817 88.664 178.849 84.855 179.641C85.038 179.148 85.225 178.661 85.383 178.141Z" fill="white"/>
<path d="M106.841 110.971C93.3989 111.535 79.9459 111.875 66.4909 111.982C53.0359 112.09 39.5789 111.968 26.1289 111.618C18.5549 111.42 10.9829 111.149 3.41488 110.807C2.40188 110.761 2.40488 112.251 3.41488 112.297C16.8549 112.904 30.3059 113.286 43.7609 113.436C57.2149 113.586 70.6729 113.507 84.1239 113.199C91.6989 113.026 99.2709 112.778 106.841 112.46C107.85 112.419 107.856 110.928 106.841 110.971Z" fill="#2DA185"/>
<path d="M106.841 112.445C93.3989 113.009 79.9459 113.349 66.4909 113.456C53.0359 113.564 39.5789 113.442 26.1289 113.092C18.5549 112.895 10.9829 112.623 3.41488 112.281C2.40188 112.235 2.40488 113.725 3.41488 113.771C16.8549 114.378 30.3059 114.76 43.7609 114.91C57.2149 115.06 70.6729 114.982 84.1239 114.673C91.6989 114.499 99.2709 114.252 106.841 113.934C107.85 113.892 107.856 112.402 106.841 112.445Z" fill="white"/>
<path d="M85.5732 7.69578C86.8842 7.87978 88.2802 7.29478 89.0282 6.24678C89.7772 5.19978 89.8412 3.74078 89.1882 2.63578C88.5352 1.53078 86.9272 0.946781 85.6052 0.867781C66.5392 -0.268219 49.2142 0.237777 28.1912 1.22278C27.0102 1.27778 25.7502 1.35178 24.9972 2.22478C24.1242 3.23678 24.0552 4.79278 24.7832 5.90378C25.5112 7.01478 26.9492 7.43978 28.3192 7.45578C46.8072 7.67178 67.1592 7.70978 85.5732 7.69578Z" fill="#51D4B3"/>
<path d="M47.7732 0.45459C41.5122 0.63359 35.0512 0.902595 28.1912 1.22359C27.0102 1.27859 25.7502 1.35259 24.9972 2.22559C24.6232 2.65859 24.4062 3.19359 24.3262 3.74859C24.3902 4.11559 24.5372 4.47259 24.7832 4.78659C25.5112 5.71659 26.9492 6.07159 28.3192 6.08459C34.6702 6.14659 41.2462 6.18959 47.8832 6.22059C46.2392 4.30259 46.5622 1.49259 47.7732 0.45459Z" fill="#B8FDD1"/>
<path d="M68.4813 204.782C34.0273 193.421 40.2353 152.486 56.2203 134.596C68.9513 120.348 76.4133 111.297 73.3093 94.8467C87.5093 105.628 100.918 139.965 90.7343 160.342C82.7633 176.289 68.0653 181.829 68.4813 204.782Z" fill="#82A827"/>
<path d="M73.3093 94.8457C73.3093 94.8457 87.9353 123.124 68.8363 151.368C50.5703 178.38 68.4813 204.781 68.4813 204.781C68.0653 181.829 82.7643 176.289 90.7343 160.341C100.918 139.964 87.5083 105.627 73.3093 94.8457Z" fill="#6D8C20"/>
<path d="M155.689 114.997C141.211 141.536 112.229 140.531 91.4817 152.587C74.0387 162.723 61.5937 184.735 68.4817 204.782C77.6407 191.303 116.66 208.534 140.938 189.025C160.486 173.316 166.256 135.619 155.689 114.997Z" fill="#B2DB60"/>
<path d="M140.937 189.025C160.485 173.316 166.255 135.619 155.688 114.997C157.735 140.499 138.15 171.541 107.6 177.246C77.0505 182.951 68.4805 204.782 68.4805 204.782C77.6405 191.303 116.659 208.534 140.937 189.025Z" fill="#82A827"/>
</svg>
